<mxfile host="app.diagrams.net" agent="Mozilla/5.0 (Windows NT 10.0; Win64; x64) AppleWebKit/537.36 (KHTML, like Gecko) Chrome/134.0.0.0 Safari/537.36 Edg/134.0.0.0" version="26.2.5">
  <diagram name="Page-1" id="nLnqoyDs2qp-jSzca--m">
    <mxGraphModel dx="2029" dy="1086" grid="1" gridSize="10" guides="1" tooltips="1" connect="1" arrows="1" fold="1" page="1" pageScale="1" pageWidth="827" pageHeight="1169" math="0" shadow="0">
      <root>
        <mxCell id="0" />
        <mxCell id="1" parent="0" />
        <mxCell id="dvlamM2bj5HqGhSwdMmL-6" value="" style="rounded=1;whiteSpace=wrap;html=1;fillColor=#f8cecc;strokeColor=default;" parent="1" vertex="1">
          <mxGeometry x="279" y="70" width="270" height="290" as="geometry" />
        </mxCell>
        <mxCell id="dvlamM2bj5HqGhSwdMmL-1" value="&lt;font style=&quot;font-size: 14px;&quot;&gt;二 进 制 翻 译 拓 展&lt;/font&gt;" style="rounded=0;whiteSpace=wrap;html=1;direction=east;flipH=1;flipV=0;textDirection=vertical-lr;fillColor=#f5f5f5;fontColor=#333333;strokeColor=default;" parent="1" vertex="1">
          <mxGeometry x="304" y="120" width="40" height="130" as="geometry" />
        </mxCell>
        <mxCell id="dvlamM2bj5HqGhSwdMmL-2" value="&lt;font style=&quot;font-size: 14px;&quot;&gt;向 量 拓 展&lt;/font&gt;" style="rounded=0;whiteSpace=wrap;html=1;direction=east;flipH=1;flipV=0;textDirection=vertical-lr;fillColor=#dae8fc;strokeColor=default;" parent="1" vertex="1">
          <mxGeometry x="364" y="120" width="40" height="130" as="geometry" />
        </mxCell>
        <mxCell id="dvlamM2bj5HqGhSwdMmL-3" value="&lt;font style=&quot;font-size: 14px;&quot;&gt;高 级 向 量 拓 展&lt;/font&gt;" style="rounded=0;whiteSpace=wrap;html=1;direction=east;flipH=1;flipV=0;textDirection=vertical-lr;fillColor=#d5e8d4;strokeColor=default;" parent="1" vertex="1">
          <mxGeometry x="424" y="120" width="40" height="130" as="geometry" />
        </mxCell>
        <mxCell id="dvlamM2bj5HqGhSwdMmL-4" value="&lt;font style=&quot;font-size: 14px;&quot;&gt;虚 拟 化 拓 展&lt;/font&gt;" style="rounded=0;whiteSpace=wrap;html=1;direction=east;flipH=1;flipV=0;textDirection=vertical-lr;fillColor=#ffe6cc;strokeColor=default;" parent="1" vertex="1">
          <mxGeometry x="484" y="120" width="40" height="130" as="geometry" />
        </mxCell>
        <mxCell id="dvlamM2bj5HqGhSwdMmL-5" value="&lt;font style=&quot;font-size: 14px;&quot;&gt;LoongArch基础指令集&lt;/font&gt;" style="rounded=0;whiteSpace=wrap;html=1;fillColor=#e1d5e7;strokeColor=default;" parent="1" vertex="1">
          <mxGeometry x="304" y="270" width="220" height="60" as="geometry" />
        </mxCell>
        <mxCell id="dvlamM2bj5HqGhSwdMmL-7" value="&lt;font style=&quot;font-size: 16px;&quot; face=&quot;Verdana&quot;&gt;LoongArch指令集&lt;/font&gt;" style="text;html=1;align=center;verticalAlign=middle;resizable=0;points=[];autosize=1;strokeColor=none;fillColor=none;" parent="1" vertex="1">
          <mxGeometry x="334" y="78" width="160" height="30" as="geometry" />
        </mxCell>
        <mxCell id="w8Et5FS7XUNBpcLHklHT-1" value="0&lt;div&gt;0&lt;/div&gt;" style="text;html=1;align=center;verticalAlign=middle;resizable=0;points=[];autosize=1;strokeColor=none;fillColor=none;fontStyle=1;fontSize=14;" parent="1" vertex="1">
          <mxGeometry x="716" y="540" width="30" height="50" as="geometry" />
        </mxCell>
        <mxCell id="w8Et5FS7XUNBpcLHklHT-2" value="0&lt;div&gt;1&lt;/div&gt;" style="text;html=1;align=center;verticalAlign=middle;resizable=0;points=[];autosize=1;strokeColor=none;fillColor=none;fontStyle=1;fontSize=14;" parent="1" vertex="1">
          <mxGeometry x="696" y="540" width="30" height="50" as="geometry" />
        </mxCell>
        <mxCell id="w8Et5FS7XUNBpcLHklHT-3" value="0&lt;div&gt;2&lt;/div&gt;" style="text;html=1;align=center;verticalAlign=middle;resizable=0;points=[];autosize=1;strokeColor=none;fillColor=none;fontStyle=1;fontSize=14;" parent="1" vertex="1">
          <mxGeometry x="676" y="540" width="30" height="50" as="geometry" />
        </mxCell>
        <mxCell id="w8Et5FS7XUNBpcLHklHT-4" value="0&lt;div&gt;3&lt;/div&gt;" style="text;html=1;align=center;verticalAlign=middle;resizable=0;points=[];autosize=1;strokeColor=none;fillColor=none;fontStyle=1;fontSize=14;" parent="1" vertex="1">
          <mxGeometry x="656" y="540" width="30" height="50" as="geometry" />
        </mxCell>
        <mxCell id="w8Et5FS7XUNBpcLHklHT-5" value="0&lt;div&gt;4&lt;/div&gt;" style="text;html=1;align=center;verticalAlign=middle;resizable=0;points=[];autosize=1;strokeColor=none;fillColor=none;fontStyle=1;fontSize=14;" parent="1" vertex="1">
          <mxGeometry x="635" y="540" width="30" height="50" as="geometry" />
        </mxCell>
        <mxCell id="w8Et5FS7XUNBpcLHklHT-6" value="0&lt;div&gt;5&lt;/div&gt;" style="text;html=1;align=center;verticalAlign=middle;resizable=0;points=[];autosize=1;strokeColor=none;fillColor=none;fontStyle=1;fontSize=14;" parent="1" vertex="1">
          <mxGeometry x="615" y="540" width="30" height="50" as="geometry" />
        </mxCell>
        <mxCell id="w8Et5FS7XUNBpcLHklHT-7" value="0&lt;div&gt;6&lt;/div&gt;" style="text;html=1;align=center;verticalAlign=middle;resizable=0;points=[];autosize=1;strokeColor=none;fillColor=none;fontStyle=1;fontSize=14;" parent="1" vertex="1">
          <mxGeometry x="595" y="540" width="30" height="50" as="geometry" />
        </mxCell>
        <mxCell id="w8Et5FS7XUNBpcLHklHT-8" value="0&lt;div&gt;7&lt;/div&gt;" style="text;html=1;align=center;verticalAlign=middle;resizable=0;points=[];autosize=1;strokeColor=none;fillColor=none;fontStyle=1;fontSize=14;" parent="1" vertex="1">
          <mxGeometry x="575" y="540" width="30" height="50" as="geometry" />
        </mxCell>
        <mxCell id="w8Et5FS7XUNBpcLHklHT-9" value="0&lt;div&gt;8&lt;/div&gt;" style="text;html=1;align=center;verticalAlign=middle;resizable=0;points=[];autosize=1;strokeColor=none;fillColor=none;fontStyle=1;fontSize=14;" parent="1" vertex="1">
          <mxGeometry x="557" y="540" width="30" height="50" as="geometry" />
        </mxCell>
        <mxCell id="w8Et5FS7XUNBpcLHklHT-10" value="0&lt;div&gt;9&lt;/div&gt;" style="text;html=1;align=center;verticalAlign=middle;resizable=0;points=[];autosize=1;strokeColor=none;fillColor=none;fontStyle=1;fontSize=14;" parent="1" vertex="1">
          <mxGeometry x="537" y="540" width="30" height="50" as="geometry" />
        </mxCell>
        <mxCell id="w8Et5FS7XUNBpcLHklHT-11" value="1&lt;br&gt;&lt;div&gt;0&lt;/div&gt;" style="text;html=1;align=center;verticalAlign=middle;resizable=0;points=[];autosize=1;strokeColor=none;fillColor=none;fontStyle=1;fontSize=14;" parent="1" vertex="1">
          <mxGeometry x="517" y="540" width="30" height="50" as="geometry" />
        </mxCell>
        <mxCell id="w8Et5FS7XUNBpcLHklHT-12" value="1&lt;br&gt;&lt;div&gt;1&lt;/div&gt;" style="text;html=1;align=center;verticalAlign=middle;resizable=0;points=[];autosize=1;strokeColor=none;fillColor=none;fontStyle=1;fontSize=14;" parent="1" vertex="1">
          <mxGeometry x="497" y="540" width="30" height="50" as="geometry" />
        </mxCell>
        <mxCell id="w8Et5FS7XUNBpcLHklHT-13" value="1&lt;br&gt;&lt;div&gt;2&lt;/div&gt;" style="text;html=1;align=center;verticalAlign=middle;resizable=0;points=[];autosize=1;strokeColor=none;fillColor=none;fontStyle=1;fontSize=14;" parent="1" vertex="1">
          <mxGeometry x="476" y="540" width="30" height="50" as="geometry" />
        </mxCell>
        <mxCell id="w8Et5FS7XUNBpcLHklHT-14" value="1&lt;br&gt;&lt;div&gt;3&lt;/div&gt;" style="text;html=1;align=center;verticalAlign=middle;resizable=0;points=[];autosize=1;strokeColor=none;fillColor=none;fontStyle=1;fontSize=14;" parent="1" vertex="1">
          <mxGeometry x="456" y="540" width="30" height="50" as="geometry" />
        </mxCell>
        <mxCell id="w8Et5FS7XUNBpcLHklHT-15" value="1&lt;br&gt;&lt;div&gt;4&lt;/div&gt;" style="text;html=1;align=center;verticalAlign=middle;resizable=0;points=[];autosize=1;strokeColor=none;fillColor=none;fontStyle=1;fontSize=14;" parent="1" vertex="1">
          <mxGeometry x="436" y="540" width="30" height="50" as="geometry" />
        </mxCell>
        <mxCell id="w8Et5FS7XUNBpcLHklHT-16" value="1&lt;br&gt;&lt;div&gt;5&lt;/div&gt;" style="text;html=1;align=center;verticalAlign=middle;resizable=0;points=[];autosize=1;strokeColor=none;fillColor=none;fontStyle=1;fontSize=14;" parent="1" vertex="1">
          <mxGeometry x="416" y="540" width="30" height="50" as="geometry" />
        </mxCell>
        <mxCell id="w8Et5FS7XUNBpcLHklHT-17" value="1&lt;br&gt;&lt;div&gt;6&lt;/div&gt;" style="text;html=1;align=center;verticalAlign=middle;resizable=0;points=[];autosize=1;strokeColor=none;fillColor=none;fontStyle=1;fontSize=14;" parent="1" vertex="1">
          <mxGeometry x="400" y="540" width="30" height="50" as="geometry" />
        </mxCell>
        <mxCell id="w8Et5FS7XUNBpcLHklHT-18" value="1&lt;br&gt;&lt;div&gt;7&lt;/div&gt;" style="text;html=1;align=center;verticalAlign=middle;resizable=0;points=[];autosize=1;strokeColor=none;fillColor=none;fontStyle=1;fontSize=14;" parent="1" vertex="1">
          <mxGeometry x="380" y="540" width="30" height="50" as="geometry" />
        </mxCell>
        <mxCell id="w8Et5FS7XUNBpcLHklHT-19" value="1&lt;br&gt;&lt;div&gt;8&lt;/div&gt;" style="text;html=1;align=center;verticalAlign=middle;resizable=0;points=[];autosize=1;strokeColor=none;fillColor=none;fontStyle=1;fontSize=14;" parent="1" vertex="1">
          <mxGeometry x="360" y="540" width="30" height="50" as="geometry" />
        </mxCell>
        <mxCell id="w8Et5FS7XUNBpcLHklHT-20" value="&lt;div&gt;1&lt;/div&gt;&lt;div&gt;9&lt;/div&gt;" style="text;html=1;align=center;verticalAlign=middle;resizable=0;points=[];autosize=1;strokeColor=none;fillColor=none;fontStyle=1;fontSize=14;" parent="1" vertex="1">
          <mxGeometry x="340" y="540" width="30" height="50" as="geometry" />
        </mxCell>
        <mxCell id="w8Et5FS7XUNBpcLHklHT-21" value="2&lt;br&gt;&lt;div&gt;0&lt;/div&gt;" style="text;html=1;align=center;verticalAlign=middle;resizable=0;points=[];autosize=1;strokeColor=none;fillColor=none;fontStyle=1;fontSize=14;" parent="1" vertex="1">
          <mxGeometry x="319" y="540" width="30" height="50" as="geometry" />
        </mxCell>
        <mxCell id="w8Et5FS7XUNBpcLHklHT-22" value="2&lt;br&gt;&lt;div&gt;1&lt;/div&gt;" style="text;html=1;align=center;verticalAlign=middle;resizable=0;points=[];autosize=1;strokeColor=none;fillColor=none;fontStyle=1;fontSize=14;" parent="1" vertex="1">
          <mxGeometry x="299" y="540" width="30" height="50" as="geometry" />
        </mxCell>
        <mxCell id="w8Et5FS7XUNBpcLHklHT-23" value="&lt;div&gt;2&lt;/div&gt;&lt;div&gt;2&lt;/div&gt;" style="text;html=1;align=center;verticalAlign=middle;resizable=0;points=[];autosize=1;strokeColor=none;fillColor=none;fontStyle=1;fontSize=14;" parent="1" vertex="1">
          <mxGeometry x="279" y="540" width="30" height="50" as="geometry" />
        </mxCell>
        <mxCell id="w8Et5FS7XUNBpcLHklHT-24" value="2&lt;br&gt;&lt;div&gt;3&lt;/div&gt;" style="text;html=1;align=center;verticalAlign=middle;resizable=0;points=[];autosize=1;strokeColor=none;fillColor=none;fontStyle=1;fontSize=14;" parent="1" vertex="1">
          <mxGeometry x="259" y="540" width="30" height="50" as="geometry" />
        </mxCell>
        <mxCell id="w8Et5FS7XUNBpcLHklHT-25" value="2&lt;br&gt;&lt;div&gt;4&lt;/div&gt;" style="text;html=1;align=center;verticalAlign=middle;resizable=0;points=[];autosize=1;strokeColor=none;fillColor=none;fontStyle=1;fontSize=14;" parent="1" vertex="1">
          <mxGeometry x="241" y="540" width="30" height="50" as="geometry" />
        </mxCell>
        <mxCell id="w8Et5FS7XUNBpcLHklHT-26" value="2&lt;br&gt;&lt;div&gt;5&lt;/div&gt;" style="text;html=1;align=center;verticalAlign=middle;resizable=0;points=[];autosize=1;strokeColor=none;fillColor=none;fontStyle=1;fontSize=14;" parent="1" vertex="1">
          <mxGeometry x="221" y="540" width="30" height="50" as="geometry" />
        </mxCell>
        <mxCell id="w8Et5FS7XUNBpcLHklHT-27" value="&lt;div&gt;2&lt;/div&gt;&lt;div&gt;6&lt;/div&gt;" style="text;html=1;align=center;verticalAlign=middle;resizable=0;points=[];autosize=1;strokeColor=none;fillColor=none;fontStyle=1;fontSize=14;" parent="1" vertex="1">
          <mxGeometry x="201" y="540" width="30" height="50" as="geometry" />
        </mxCell>
        <mxCell id="w8Et5FS7XUNBpcLHklHT-28" value="2&lt;br&gt;&lt;div&gt;7&lt;/div&gt;" style="text;html=1;align=center;verticalAlign=middle;resizable=0;points=[];autosize=1;strokeColor=none;fillColor=none;fontStyle=1;fontSize=14;" parent="1" vertex="1">
          <mxGeometry x="181" y="540" width="30" height="50" as="geometry" />
        </mxCell>
        <mxCell id="w8Et5FS7XUNBpcLHklHT-29" value="&lt;div&gt;2&lt;/div&gt;&lt;div&gt;8&lt;/div&gt;" style="text;html=1;align=center;verticalAlign=middle;resizable=0;points=[];autosize=1;strokeColor=none;fillColor=none;fontStyle=1;fontSize=14;" parent="1" vertex="1">
          <mxGeometry x="160" y="540" width="30" height="50" as="geometry" />
        </mxCell>
        <mxCell id="w8Et5FS7XUNBpcLHklHT-30" value="&lt;div&gt;2&lt;/div&gt;&lt;div&gt;9&lt;/div&gt;" style="text;html=1;align=center;verticalAlign=middle;resizable=0;points=[];autosize=1;strokeColor=none;fillColor=none;fontStyle=1;fontSize=14;" parent="1" vertex="1">
          <mxGeometry x="140" y="540" width="30" height="50" as="geometry" />
        </mxCell>
        <mxCell id="w8Et5FS7XUNBpcLHklHT-31" value="3&lt;br&gt;&lt;div&gt;0&lt;/div&gt;" style="text;html=1;align=center;verticalAlign=middle;resizable=0;points=[];autosize=1;strokeColor=none;fillColor=none;fontStyle=1;fontSize=14;" parent="1" vertex="1">
          <mxGeometry x="120" y="540" width="30" height="50" as="geometry" />
        </mxCell>
        <mxCell id="w8Et5FS7XUNBpcLHklHT-32" value="3&lt;br&gt;&lt;div&gt;1&lt;/div&gt;" style="text;html=1;align=center;verticalAlign=middle;resizable=0;points=[];autosize=1;strokeColor=none;fillColor=none;fontStyle=1;fontSize=14;" parent="1" vertex="1">
          <mxGeometry x="100" y="540" width="30" height="50" as="geometry" />
        </mxCell>
        <mxCell id="w8Et5FS7XUNBpcLHklHT-33" value="" style="rounded=0;whiteSpace=wrap;html=1;" parent="1" vertex="1">
          <mxGeometry x="100" y="590" width="650" height="30" as="geometry" />
        </mxCell>
        <mxCell id="w8Et5FS7XUNBpcLHklHT-34" value="&lt;b&gt;&lt;font style=&quot;font-size: 14px;&quot;&gt;2R-type&lt;/font&gt;&lt;/b&gt;" style="text;html=1;align=center;verticalAlign=middle;resizable=0;points=[];autosize=1;strokeColor=none;fillColor=none;" parent="1" vertex="1">
          <mxGeometry x="25" y="588" width="70" height="30" as="geometry" />
        </mxCell>
        <mxCell id="w8Et5FS7XUNBpcLHklHT-35" value="" style="rounded=0;whiteSpace=wrap;html=1;" parent="1" vertex="1">
          <mxGeometry x="100" y="642" width="650" height="30" as="geometry" />
        </mxCell>
        <mxCell id="w8Et5FS7XUNBpcLHklHT-36" value="&lt;b&gt;&lt;font style=&quot;font-size: 14px;&quot;&gt;3R-type&lt;/font&gt;&lt;/b&gt;" style="text;html=1;align=center;verticalAlign=middle;resizable=0;points=[];autosize=1;strokeColor=none;fillColor=none;" parent="1" vertex="1">
          <mxGeometry x="25" y="640" width="70" height="30" as="geometry" />
        </mxCell>
        <mxCell id="w8Et5FS7XUNBpcLHklHT-37" value="" style="rounded=0;whiteSpace=wrap;html=1;" parent="1" vertex="1">
          <mxGeometry x="100" y="692" width="650" height="30" as="geometry" />
        </mxCell>
        <mxCell id="w8Et5FS7XUNBpcLHklHT-38" value="&lt;b&gt;&lt;font style=&quot;font-size: 14px;&quot;&gt;4R-type&lt;/font&gt;&lt;/b&gt;" style="text;html=1;align=center;verticalAlign=middle;resizable=0;points=[];autosize=1;strokeColor=none;fillColor=none;" parent="1" vertex="1">
          <mxGeometry x="25" y="690" width="70" height="30" as="geometry" />
        </mxCell>
        <mxCell id="w8Et5FS7XUNBpcLHklHT-39" value="" style="rounded=0;whiteSpace=wrap;html=1;" parent="1" vertex="1">
          <mxGeometry x="100" y="742" width="650" height="30" as="geometry" />
        </mxCell>
        <mxCell id="w8Et5FS7XUNBpcLHklHT-40" value="&lt;b&gt;&lt;font style=&quot;font-size: 14px;&quot;&gt;2RI8-type&lt;/font&gt;&lt;/b&gt;" style="text;html=1;align=center;verticalAlign=middle;resizable=0;points=[];autosize=1;strokeColor=none;fillColor=none;" parent="1" vertex="1">
          <mxGeometry x="15" y="740" width="90" height="30" as="geometry" />
        </mxCell>
        <mxCell id="w8Et5FS7XUNBpcLHklHT-41" value="" style="rounded=0;whiteSpace=wrap;html=1;" parent="1" vertex="1">
          <mxGeometry x="100" y="794" width="650" height="30" as="geometry" />
        </mxCell>
        <mxCell id="w8Et5FS7XUNBpcLHklHT-42" value="&lt;b&gt;&lt;font style=&quot;font-size: 14px;&quot;&gt;2RI12-type&lt;/font&gt;&lt;/b&gt;" style="text;html=1;align=center;verticalAlign=middle;resizable=0;points=[];autosize=1;strokeColor=none;fillColor=none;" parent="1" vertex="1">
          <mxGeometry x="15" y="792" width="90" height="30" as="geometry" />
        </mxCell>
        <mxCell id="w8Et5FS7XUNBpcLHklHT-43" value="" style="rounded=0;whiteSpace=wrap;html=1;" parent="1" vertex="1">
          <mxGeometry x="100" y="844" width="650" height="30" as="geometry" />
        </mxCell>
        <mxCell id="w8Et5FS7XUNBpcLHklHT-44" value="&lt;b&gt;&lt;font style=&quot;font-size: 14px;&quot;&gt;2RI14-type&lt;/font&gt;&lt;/b&gt;" style="text;html=1;align=center;verticalAlign=middle;resizable=0;points=[];autosize=1;strokeColor=none;fillColor=none;" parent="1" vertex="1">
          <mxGeometry x="15" y="842" width="90" height="30" as="geometry" />
        </mxCell>
        <mxCell id="w8Et5FS7XUNBpcLHklHT-45" value="" style="rounded=0;whiteSpace=wrap;html=1;" parent="1" vertex="1">
          <mxGeometry x="100" y="892" width="650" height="30" as="geometry" />
        </mxCell>
        <mxCell id="w8Et5FS7XUNBpcLHklHT-46" value="&lt;b&gt;&lt;font style=&quot;font-size: 14px;&quot;&gt;2RI16-type&lt;/font&gt;&lt;/b&gt;" style="text;html=1;align=center;verticalAlign=middle;resizable=0;points=[];autosize=1;strokeColor=none;fillColor=none;" parent="1" vertex="1">
          <mxGeometry x="15" y="890" width="90" height="30" as="geometry" />
        </mxCell>
        <mxCell id="w8Et5FS7XUNBpcLHklHT-47" value="" style="rounded=0;whiteSpace=wrap;html=1;" parent="1" vertex="1">
          <mxGeometry x="100" y="944" width="650" height="30" as="geometry" />
        </mxCell>
        <mxCell id="w8Et5FS7XUNBpcLHklHT-48" value="&lt;b&gt;&lt;font style=&quot;font-size: 14px;&quot;&gt;1RI21-type&lt;/font&gt;&lt;/b&gt;" style="text;html=1;align=center;verticalAlign=middle;resizable=0;points=[];autosize=1;strokeColor=none;fillColor=none;" parent="1" vertex="1">
          <mxGeometry x="15" y="942" width="90" height="30" as="geometry" />
        </mxCell>
        <mxCell id="w8Et5FS7XUNBpcLHklHT-49" value="" style="rounded=0;whiteSpace=wrap;html=1;" parent="1" vertex="1">
          <mxGeometry x="100" y="994" width="650" height="30" as="geometry" />
        </mxCell>
        <mxCell id="w8Et5FS7XUNBpcLHklHT-50" value="&lt;b&gt;&lt;font style=&quot;font-size: 14px;&quot;&gt;I26-type&lt;/font&gt;&lt;/b&gt;" style="text;html=1;align=center;verticalAlign=middle;resizable=0;points=[];autosize=1;strokeColor=none;fillColor=none;" parent="1" vertex="1">
          <mxGeometry x="20" y="992" width="80" height="30" as="geometry" />
        </mxCell>
        <mxCell id="w8Et5FS7XUNBpcLHklHT-51" value="&lt;font style=&quot;font-size: 14px;&quot;&gt;opcode&lt;/font&gt;" style="rounded=0;whiteSpace=wrap;html=1;" parent="1" vertex="1">
          <mxGeometry x="100" y="590" width="440" height="30" as="geometry" />
        </mxCell>
        <mxCell id="w8Et5FS7XUNBpcLHklHT-52" value="&lt;font style=&quot;font-size: 14px;&quot;&gt;rd&lt;/font&gt;" style="rounded=0;whiteSpace=wrap;html=1;" parent="1" vertex="1">
          <mxGeometry x="640" y="590" width="110" height="30" as="geometry" />
        </mxCell>
        <mxCell id="w8Et5FS7XUNBpcLHklHT-53" value="&lt;font style=&quot;font-size: 14px;&quot;&gt;rd&lt;/font&gt;" style="rounded=0;whiteSpace=wrap;html=1;" parent="1" vertex="1">
          <mxGeometry x="640" y="642" width="110" height="30" as="geometry" />
        </mxCell>
        <mxCell id="w8Et5FS7XUNBpcLHklHT-54" value="&lt;font style=&quot;font-size: 14px;&quot;&gt;rd&lt;/font&gt;" style="rounded=0;whiteSpace=wrap;html=1;" parent="1" vertex="1">
          <mxGeometry x="640" y="692" width="110" height="30" as="geometry" />
        </mxCell>
        <mxCell id="w8Et5FS7XUNBpcLHklHT-55" value="&lt;font style=&quot;font-size: 14px;&quot;&gt;rd&lt;/font&gt;" style="rounded=0;whiteSpace=wrap;html=1;" parent="1" vertex="1">
          <mxGeometry x="640" y="742" width="110" height="30" as="geometry" />
        </mxCell>
        <mxCell id="w8Et5FS7XUNBpcLHklHT-56" value="&lt;font style=&quot;font-size: 14px;&quot;&gt;rd&lt;/font&gt;" style="rounded=0;whiteSpace=wrap;html=1;" parent="1" vertex="1">
          <mxGeometry x="640" y="794" width="110" height="30" as="geometry" />
        </mxCell>
        <mxCell id="w8Et5FS7XUNBpcLHklHT-57" value="&lt;font style=&quot;font-size: 14px;&quot;&gt;rd&lt;/font&gt;" style="rounded=0;whiteSpace=wrap;html=1;" parent="1" vertex="1">
          <mxGeometry x="640" y="844" width="110" height="30" as="geometry" />
        </mxCell>
        <mxCell id="w8Et5FS7XUNBpcLHklHT-58" value="&lt;font style=&quot;font-size: 14px;&quot;&gt;rd&lt;/font&gt;" style="rounded=0;whiteSpace=wrap;html=1;" parent="1" vertex="1">
          <mxGeometry x="640" y="892" width="110" height="30" as="geometry" />
        </mxCell>
        <mxCell id="w8Et5FS7XUNBpcLHklHT-59" value="&lt;span style=&quot;font-size: 14px;&quot;&gt;I21[20 : 16]&lt;/span&gt;" style="rounded=0;whiteSpace=wrap;html=1;" parent="1" vertex="1">
          <mxGeometry x="640" y="944" width="110" height="30" as="geometry" />
        </mxCell>
        <mxCell id="w8Et5FS7XUNBpcLHklHT-60" value="&lt;font style=&quot;font-size: 14px;&quot;&gt;rj&lt;/font&gt;" style="rounded=0;whiteSpace=wrap;html=1;" parent="1" vertex="1">
          <mxGeometry x="540" y="590" width="100" height="30" as="geometry" />
        </mxCell>
        <mxCell id="w8Et5FS7XUNBpcLHklHT-61" value="&lt;font style=&quot;font-size: 14px;&quot;&gt;rj&lt;/font&gt;" style="rounded=0;whiteSpace=wrap;html=1;" parent="1" vertex="1">
          <mxGeometry x="540" y="642" width="100" height="30" as="geometry" />
        </mxCell>
        <mxCell id="w8Et5FS7XUNBpcLHklHT-62" value="&lt;font style=&quot;font-size: 14px;&quot;&gt;rj&lt;/font&gt;" style="rounded=0;whiteSpace=wrap;html=1;" parent="1" vertex="1">
          <mxGeometry x="540" y="692" width="100" height="30" as="geometry" />
        </mxCell>
        <mxCell id="w8Et5FS7XUNBpcLHklHT-63" value="&lt;font style=&quot;font-size: 14px;&quot;&gt;rj&lt;/font&gt;" style="rounded=0;whiteSpace=wrap;html=1;" parent="1" vertex="1">
          <mxGeometry x="540" y="742" width="100" height="30" as="geometry" />
        </mxCell>
        <mxCell id="w8Et5FS7XUNBpcLHklHT-64" value="&lt;font style=&quot;font-size: 14px;&quot;&gt;rj&lt;/font&gt;" style="rounded=0;whiteSpace=wrap;html=1;" parent="1" vertex="1">
          <mxGeometry x="540" y="794" width="100" height="30" as="geometry" />
        </mxCell>
        <mxCell id="w8Et5FS7XUNBpcLHklHT-65" value="&lt;font style=&quot;font-size: 14px;&quot;&gt;rj&lt;/font&gt;" style="rounded=0;whiteSpace=wrap;html=1;" parent="1" vertex="1">
          <mxGeometry x="540" y="844" width="100" height="30" as="geometry" />
        </mxCell>
        <mxCell id="w8Et5FS7XUNBpcLHklHT-66" value="&lt;font style=&quot;font-size: 14px;&quot;&gt;rj&lt;/font&gt;" style="rounded=0;whiteSpace=wrap;html=1;" parent="1" vertex="1">
          <mxGeometry x="540" y="892" width="100" height="30" as="geometry" />
        </mxCell>
        <mxCell id="w8Et5FS7XUNBpcLHklHT-67" value="&lt;font style=&quot;font-size: 14px;&quot;&gt;rj&lt;/font&gt;" style="rounded=0;whiteSpace=wrap;html=1;" parent="1" vertex="1">
          <mxGeometry x="540" y="944" width="100" height="30" as="geometry" />
        </mxCell>
        <mxCell id="w8Et5FS7XUNBpcLHklHT-68" value="&lt;span style=&quot;font-size: 14px;&quot;&gt;I26[25 : 16]&lt;/span&gt;" style="rounded=0;whiteSpace=wrap;html=1;" parent="1" vertex="1">
          <mxGeometry x="540" y="994" width="210" height="30" as="geometry" />
        </mxCell>
        <mxCell id="w8Et5FS7XUNBpcLHklHT-69" value="&lt;font style=&quot;font-size: 14px;&quot;&gt;opcode&lt;/font&gt;" style="rounded=0;whiteSpace=wrap;html=1;" parent="1" vertex="1">
          <mxGeometry x="100" y="642" width="340" height="30" as="geometry" />
        </mxCell>
        <mxCell id="w8Et5FS7XUNBpcLHklHT-70" value="&lt;font style=&quot;font-size: 14px;&quot;&gt;opcode&lt;/font&gt;" style="rounded=0;whiteSpace=wrap;html=1;" parent="1" vertex="1">
          <mxGeometry x="100" y="692" width="250" height="30" as="geometry" />
        </mxCell>
        <mxCell id="w8Et5FS7XUNBpcLHklHT-71" value="&lt;font style=&quot;font-size: 14px;&quot;&gt;opcode&lt;/font&gt;" style="rounded=0;whiteSpace=wrap;html=1;" parent="1" vertex="1">
          <mxGeometry x="100" y="742" width="290" height="30" as="geometry" />
        </mxCell>
        <mxCell id="w8Et5FS7XUNBpcLHklHT-72" value="&lt;font style=&quot;font-size: 14px;&quot;&gt;opcode&lt;/font&gt;" style="rounded=0;whiteSpace=wrap;html=1;" parent="1" vertex="1">
          <mxGeometry x="100" y="794" width="200" height="30" as="geometry" />
        </mxCell>
        <mxCell id="w8Et5FS7XUNBpcLHklHT-73" value="&lt;font style=&quot;font-size: 14px;&quot;&gt;opcode&lt;/font&gt;" style="rounded=0;whiteSpace=wrap;html=1;" parent="1" vertex="1">
          <mxGeometry x="100" y="844" width="170" height="30" as="geometry" />
        </mxCell>
        <mxCell id="w8Et5FS7XUNBpcLHklHT-74" value="&lt;font style=&quot;font-size: 14px;&quot;&gt;opcode&lt;/font&gt;" style="rounded=0;whiteSpace=wrap;html=1;" parent="1" vertex="1">
          <mxGeometry x="100" y="892" width="130" height="30" as="geometry" />
        </mxCell>
        <mxCell id="w8Et5FS7XUNBpcLHklHT-75" value="&lt;font style=&quot;font-size: 14px;&quot;&gt;opcode&lt;/font&gt;" style="rounded=0;whiteSpace=wrap;html=1;" parent="1" vertex="1">
          <mxGeometry x="100" y="944" width="130" height="30" as="geometry" />
        </mxCell>
        <mxCell id="w8Et5FS7XUNBpcLHklHT-76" value="&lt;font style=&quot;font-size: 14px;&quot;&gt;opcode&lt;/font&gt;" style="rounded=0;whiteSpace=wrap;html=1;" parent="1" vertex="1">
          <mxGeometry x="100" y="994" width="130" height="30" as="geometry" />
        </mxCell>
        <mxCell id="w8Et5FS7XUNBpcLHklHT-77" value="&lt;font style=&quot;font-size: 14px;&quot;&gt;rk&lt;/font&gt;" style="rounded=0;whiteSpace=wrap;html=1;" parent="1" vertex="1">
          <mxGeometry x="440" y="642" width="101" height="30" as="geometry" />
        </mxCell>
        <mxCell id="w8Et5FS7XUNBpcLHklHT-78" value="&lt;font style=&quot;font-size: 14px;&quot;&gt;rk&lt;/font&gt;" style="rounded=0;whiteSpace=wrap;html=1;" parent="1" vertex="1">
          <mxGeometry x="440" y="692" width="100" height="30" as="geometry" />
        </mxCell>
        <mxCell id="w8Et5FS7XUNBpcLHklHT-79" value="&lt;font style=&quot;font-size: 14px;&quot;&gt;ra&lt;/font&gt;" style="rounded=0;whiteSpace=wrap;html=1;" parent="1" vertex="1">
          <mxGeometry x="350" y="692" width="100" height="30" as="geometry" />
        </mxCell>
        <mxCell id="w8Et5FS7XUNBpcLHklHT-80" value="&lt;font style=&quot;font-size: 14px;&quot;&gt;I8&lt;/font&gt;" style="rounded=0;whiteSpace=wrap;html=1;" parent="1" vertex="1">
          <mxGeometry x="390" y="742" width="150" height="30" as="geometry" />
        </mxCell>
        <mxCell id="w8Et5FS7XUNBpcLHklHT-81" value="&lt;font style=&quot;font-size: 14px;&quot;&gt;I12&lt;/font&gt;" style="rounded=0;whiteSpace=wrap;html=1;" parent="1" vertex="1">
          <mxGeometry x="300" y="794" width="240" height="30" as="geometry" />
        </mxCell>
        <mxCell id="w8Et5FS7XUNBpcLHklHT-82" value="&lt;font style=&quot;font-size: 14px;&quot;&gt;I14&lt;/font&gt;" style="rounded=0;whiteSpace=wrap;html=1;" parent="1" vertex="1">
          <mxGeometry x="270" y="844" width="270" height="30" as="geometry" />
        </mxCell>
        <mxCell id="w8Et5FS7XUNBpcLHklHT-83" value="&lt;font style=&quot;font-size: 14px;&quot;&gt;I16&lt;/font&gt;" style="rounded=0;whiteSpace=wrap;html=1;" parent="1" vertex="1">
          <mxGeometry x="230" y="892" width="310" height="30" as="geometry" />
        </mxCell>
        <mxCell id="w8Et5FS7XUNBpcLHklHT-84" value="&lt;span style=&quot;font-size: 14px;&quot;&gt;I21[15 : 0]&lt;/span&gt;" style="rounded=0;whiteSpace=wrap;html=1;" parent="1" vertex="1">
          <mxGeometry x="230" y="944" width="310" height="30" as="geometry" />
        </mxCell>
        <mxCell id="w8Et5FS7XUNBpcLHklHT-85" value="&lt;span style=&quot;font-size: 14px;&quot;&gt;I26[15 : 0]&lt;/span&gt;" style="rounded=0;whiteSpace=wrap;html=1;" parent="1" vertex="1">
          <mxGeometry x="230" y="994" width="311" height="30" as="geometry" />
        </mxCell>
        <mxCell id="w8Et5FS7XUNBpcLHklHT-89" style="edgeStyle=orthogonalEdgeStyle;rounded=0;orthogonalLoop=1;jettySize=auto;html=1;exitX=1;exitY=0.5;exitDx=0;exitDy=0;entryX=0;entryY=0.5;entryDx=0;entryDy=0;" parent="1" source="w8Et5FS7XUNBpcLHklHT-86" target="w8Et5FS7XUNBpcLHklHT-87" edge="1">
          <mxGeometry relative="1" as="geometry" />
        </mxCell>
        <mxCell id="w8Et5FS7XUNBpcLHklHT-91" style="edgeStyle=orthogonalEdgeStyle;rounded=0;orthogonalLoop=1;jettySize=auto;html=1;exitX=0.5;exitY=1;exitDx=0;exitDy=0;entryX=0;entryY=0.5;entryDx=0;entryDy=0;curved=1;" parent="1" source="w8Et5FS7XUNBpcLHklHT-86" target="w8Et5FS7XUNBpcLHklHT-88" edge="1">
          <mxGeometry relative="1" as="geometry" />
        </mxCell>
        <mxCell id="w8Et5FS7XUNBpcLHklHT-86" value="&lt;b style=&quot;&quot;&gt;&lt;font style=&quot;font-size: 20px;&quot;&gt;unused&lt;/font&gt;&lt;/b&gt;" style="ellipse;whiteSpace=wrap;html=1;strokeWidth=2;" parent="1" vertex="1">
          <mxGeometry x="224" y="1230" width="120" height="80" as="geometry" />
        </mxCell>
        <mxCell id="w8Et5FS7XUNBpcLHklHT-87" value="&lt;b style=&quot;&quot;&gt;&lt;font style=&quot;font-size: 20px;&quot;&gt;bound&lt;/font&gt;&lt;/b&gt;" style="ellipse;whiteSpace=wrap;html=1;strokeWidth=2;" parent="1" vertex="1">
          <mxGeometry x="464" y="1230" width="120" height="80" as="geometry" />
        </mxCell>
        <mxCell id="w8Et5FS7XUNBpcLHklHT-90" style="edgeStyle=orthogonalEdgeStyle;rounded=0;orthogonalLoop=1;jettySize=auto;html=1;exitX=1;exitY=0.5;exitDx=0;exitDy=0;entryX=0.5;entryY=1;entryDx=0;entryDy=0;curved=1;" parent="1" source="w8Et5FS7XUNBpcLHklHT-88" target="w8Et5FS7XUNBpcLHklHT-87" edge="1">
          <mxGeometry relative="1" as="geometry" />
        </mxCell>
        <mxCell id="w8Et5FS7XUNBpcLHklHT-88" value="&lt;b style=&quot;&quot;&gt;&lt;font style=&quot;font-size: 20px;&quot;&gt;patched&lt;/font&gt;&lt;/b&gt;" style="ellipse;whiteSpace=wrap;html=1;strokeWidth=2;" parent="1" vertex="1">
          <mxGeometry x="345" y="1330" width="120" height="80" as="geometry" />
        </mxCell>
        <mxCell id="w8Et5FS7XUNBpcLHklHT-92" value="&lt;font style=&quot;font-size: 20px;&quot;&gt;bound&lt;/font&gt;" style="text;html=1;align=center;verticalAlign=middle;resizable=0;points=[];autosize=1;strokeColor=none;fillColor=none;" parent="1" vertex="1">
          <mxGeometry x="360" y="1223" width="80" height="40" as="geometry" />
        </mxCell>
        <mxCell id="w8Et5FS7XUNBpcLHklHT-93" value="&lt;font style=&quot;font-size: 20px;&quot;&gt;branch&lt;/font&gt;" style="text;html=1;align=center;verticalAlign=middle;resizable=0;points=[];autosize=1;strokeColor=none;fillColor=none;" parent="1" vertex="1">
          <mxGeometry x="219" y="1350" width="80" height="40" as="geometry" />
        </mxCell>
        <mxCell id="w8Et5FS7XUNBpcLHklHT-94" value="&lt;font style=&quot;font-size: 20px;&quot;&gt;bound&lt;/font&gt;" style="text;html=1;align=center;verticalAlign=middle;resizable=0;points=[];autosize=1;strokeColor=none;fillColor=none;" parent="1" vertex="1">
          <mxGeometry x="512" y="1350" width="80" height="40" as="geometry" />
        </mxCell>
      </root>
    </mxGraphModel>
  </diagram>
</mxfile>
